HIERARCHY
ROOT PELVIS
{
    OFFSET 0 0 0
    CHANNELS 6 Xposition Yposition Zposition Xrotation Yrotation Zrotation
    JOINT HIP_LEFT
    {
        OFFSET 7.179837000000004 -0.16621849999999938 -4.143481400000018
        CHANNELS 3 Xrotation Yrotation Zrotation
        JOINT KNEE_LEFT
        {
            OFFSET 1.8186462000000005 -36.3250458 1.54128410000003
            CHANNELS 3 Xrotation Yrotation Zrotation
            JOINT ANKLE_LEFT
            {
                OFFSET 5.139150999999998 -31.740254200000003 13.285449299999982
                CHANNELS 3 Xrotation Yrotation Zrotation
                JOINT FOOT_LEFT
                {
                    OFFSET -1.627920499999999 -12.280194099999994 -11.693652399999973
                    CHANNELS 3 Xrotation Yrotation Zrotation
                }
            }
        }
    }
    JOINT HIP_RIGHT
    {
        OFFSET -6.474380499999998 0.14957740000000114 3.736352500000021
        CHANNELS 3 Xrotation Yrotation Zrotation
        JOINT KNEE_RIGHT
        {
            OFFSET 2.1862212999999997 -35.5006073 7.567529299999978
            CHANNELS 3 Xrotation Yrotation Zrotation
            JOINT ANKLE_RIGHT
            {
                OFFSET 6.129772899999997 -33.16903229999999 9.909472700000014
                CHANNELS 3 Xrotation Yrotation Zrotation
                JOINT FOOT_RIGHT
                {
                    OFFSET -9.378500299999999 -10.563830600000006 -6.789648400000033
                    CHANNELS 3 Xrotation Yrotation Zrotation
                }
            }
        }
    }
}
MOTION
Frames: 30
Frame Time: 0.01
0 0 0 0.0 0.0 0.0 0.0 0.0 0.0 0.0 0.0 0.0 0.0 0.0 0.0 0 0 0 0.0 0.0 0.0 0.0 0.0 0.0 0.0 0.0 0.0 0 0 0 
0 0 0 0.0 0.0 0.0 0.0 0.0 0.0 0.0 0.0 0.0 0.0 0.0 0.0 0 0 0 0.0 0.0 0.0 0.0 0.0 0.0 0.0 0.0 0.0 0 0 0 
0 0 0 0.0 0.0 0.0 0.0 0.0 0.0 0.0 0.0 0.0 0.0 0.0 0.0 0 0 0 0.0 0.0 0.0 0.0 0.0 0.0 0.0 0.0 0.0 0 0 0 
0 0 0 0.0 0.0 0.0 0.0 0.0 0.0 0.0 0.0 0.0 0.0 0.0 0.0 0 0 0 0.0 0.0 0.0 0.0 0.0 0.0 0.0 0.0 0.0 0 0 0 
0 0 0 0.0 0.0 0.0 0.0 0.0 0.0 0.0 0.0 0.0 0.0 0.0 0.0 0 0 0 0.0 0.0 0.0 0.0 0.0 0.0 0.0 0.0 0.0 0 0 0 
0 0 0 0.0 0.0 0.0 0.0 0.0 0.0 0.0 0.0 0.0 0.0 0.0 0.0 0 0 0 0.0 0.0 0.0 0.0 0.0 0.0 0.0 0.0 0.0 0 0 0 
0 0 0 0.0 0.0 0.0 0.0 0.0 0.0 0.0 0.0 0.0 0.0 0.0 0.0 0 0 0 0.0 0.0 0.0 0.0 0.0 0.0 0.0 0.0 0.0 0 0 0 
0 0 0 0.0 0.0 0.0 0.0 0.0 0.0 0.0 0.0 0.0 0.0 0.0 0.0 0 0 0 0.0 0.0 0.0 0.0 0.0 0.0 0.0 0.0 0.0 0 0 0 
0 0 0 0.0 0.0 0.0 0.0 0.0 0.0 0.0 0.0 0.0 0.0 0.0 0.0 0 0 0 0.0 0.0 0.0 0.0 0.0 0.0 0.0 0.0 0.0 0 0 0 
0 0 0 0.0 0.0 0.0 -0.3713759589720444 -0.014284592949732932 0.0943727580553347 0.6048323703765465 0.03134000129760675 -0.16090554543105615 0.0 0.0 0.0 0 0 0 0.0 0.0 0.0 0.0 0.0 0.0 0.0 0.0 0.0 0 0 0 
0 0 0 0.0 0.0 0.0 -0.5569728005677888 -0.02117234757629727 0.14202032921799934 0.9072487940731516 0.047240504860805034 -0.24217748482486323 0.0 0.0 0.0 0 0 0 0.0 0.0 0.0 0.0 0.0 0.0 0.0 0.0 0.0 0 0 0 
0 0 0 0.0 0.0 0.0 -0.7426467461694026 -0.027908281728376987 0.18970831920062162 1.209758696189566 0.06355902031249576 -0.3233976848367549 -0.15233082360351108 0.20911906323364018 -0.1951144034179455 0 0 0 0.0 0.0 0.0 0.0 0.0 0.0 0.0 0.0 0.0 0 0 0 
0 0 0 0.0 0.0 0.0 -0.9283935560215972 -0.0344919972117724 0.23743519418077821 1.5123563743076538 0.08029531308571525 -0.404562574110183 -0.19047046816068502 0.2602102093859779 -0.2416378466562806 0 0 0 0.0 0.0 0.0 0.0 0.0 0.0 -0.16297007031889746 -0.019117537861267277 0.25538720486773003 0 0 0 
0 0 0 0.0 0.0 0.0 -1.1142089801688495 -0.0409231107518969 0.285199414688392 1.8150361193139248 0.09744910727954546 -0.4856685821248551 -0.22863598753125447 0.3115376430252863 -0.2880051848268334 0 0 0 0.0 0.0 0.0 0.0 0.0 0.0 -0.19769667830850102 -0.021996970923198116 0.3080844838215926 0 0 0 
0 0 0 0.0 0.0 0.0 -1.2379236626192385 -0.045118888885232765 0.3170112202499306 2.0165424336651383 0.10909794405838302 -0.5396183445632671 -0.25405285931321697 0.34583182860130635 -0.31878021987020916 0 0 0 0.0 0.0 0.0 0.0 0.0 0.0 -0.22081931298433904 -0.023896399164342136 0.3431715916725908 0 0 0 
0 0 0 0.0 0.0 0.0 -1.2379314170772915 -0.045116325925125184 0.31706622272359253 2.016110112921876 0.10902472601595697 -0.5396202761523032 -0.2540883121120515 0.3454113153603304 -0.3183492527995367 0 0 0 0.0 0.0 0.0 0.0 0.0 0.0 -0.22033069728754576 -0.02419394399350291 0.34295599176585195 0 0 0 
0 0 0 0.0 0.0 0.0 -1.2379391715397854 -0.045113762955005215 0.317121225251349 2.0156777919169446 0.10895150716696769 -0.5396222068938422 -0.25412376728835645 0.3449908088393448 -0.3179182791605675 0 0 0 0.0 0.0 0.0 0.0 0.0 0.0 -0.21984207998699526 -0.02449148726919172 0.34274038909403687 0 0 0 
0 0 0 0.0 0.0 0.0 -1.2379469260070035 -0.04511119997488558 0.3171762278332185 2.0152454706509686 0.10887828751150425 -0.5396241367879232 -0.2541592248425394 0.34457030903864233 -0.31748729895349137 0 0 0 0.0 0.0 0.0 0.0 0.0 0.0 -0.21935346108279 -0.024789028991306795 0.3425247836572413 0 0 0 
0 0 0 0.0 0.0 0.0 -1.2379546804789485 -0.045108636984753564 0.317231230469182 2.0148131491240044 0.10880506704963025 -0.5396260658344681 -0.2541946847744875 0.34414981595860455 -0.3170563121786403 0 0 0 0.0 0.0 0.0 0.0 0.0 0.0 -0.21886484057492167 -0.025086569159835405 0.3423091754555108 0 0 0 
0 0 0 0.0 0.0 0.0 -1.237962434955547 -0.04510607398460916 0.3172862331592482 2.014380827335878 0.10873184578128209 -0.5396279940335239 -0.2542301470841219 0.3437293295994732 -0.3166253188362313 0 0 0 0.0 0.0 0.0 0.0 0.0 0.0 -0.21837621846367364 -0.025384107774497663 0.3420935644888551 0 0 0 
0 0 0 0.0 0.0 0.0 -1.2379701894367288 -0.04510351097446509 0.3173412359034186 2.0139485052867223 0.10865862370651064 -0.5396299213850523 -0.2542656117715968 0.3433088499616554 -0.31619431892657646 0 0 0 0.0 0.0 0.0 0.0 0.0 0.0 -0.2178875947490502 -0.02568164483528085 0.3418779507573609 0 0 0 
0 0 0 0.0 0.0 0.0 -1.2379753678819438 -0.04510179939071792 0.3173779667661117 2.0136598004770385 0.10860972555590907 -0.5396312079984407 -0.2542892964138404 0.34302805740257997 -0.31590649352987354 0 0 0 0.0 0.0 0.0 0.0 0.0 0.0 -0.21756129093952117 -0.025880339219138244 0.34173396236780246 0 0 0 
0 0 0 0.0 0.0 0.0 -1.148965649680579 -0.04112069146976141 0.312960630132975 1.8797476828980995 0.09130726603964345 -0.5277844573082794 -0.2722330981258455 0.3261798047261196 -0.2967326934313493 0 0 0 0.0 0.0 0.0 0.0 0.0 0.0 -0.1816153564090272 -0.05451849103016258 0.3363821228925291 0 0 0 
0 0 0 0.0 0.0 0.0 -1.0599827276996663 -0.03713392968530299 0.30855048475071767 1.7458727570192232 0.07403007337234523 -0.515910359078941 -0.29017468021797754 0.30935572010350804 -0.2775289198786425 0 0 0 0.0 0.0 0.0 0.0 0.0 0.0 -0.1456779014648399 -0.08314431326271254 0.3310138857334653 0 0 0 
0 0 0 0.0 0.0 0.0 -0.9710270204785906 -0.03314154788078537 0.30414755666145626 1.6120354829235892 0.056778225680510774 -0.5040090080993769 -0.3081139122439576 0.292555872332204 -0.2582952450193241 0 0 0 0.0 0.0 0.0 0.0 0.0 0.0 -0.1097489525451788 -0.11175776437410039 0.32562927344569337 0 0 0 
0 0 0 0.0 0.0 0.0 -0.8820989457717442 -0.02914357999170921 0.2997518717262663 1.478236319950374 0.03955180060452047 -0.49208049944194937 -0.3260506639236149 0.27578033016340825 -0.2390317411806681 0 0 0 0.0 0.0 0.0 0.0 0.0 0.0 -0.07382853605322236 -0.140358802922322 0.3202283086366471 0 0 0 
0 0 0 0.018205667310262182 -0.28928493531184796 0.04329486969869261 -0.7968512988343673 -0.027294193142883186 0.26438749656167865 1.371040242344699 0.0645165070871462 -0.3838405891363409 -0.3956154123365307 0.4354664745490597 -0.3974739594935244 0 0 0 0.0 0.0 0.0 0.0 0.0 0.0 0.0 0.0 0.0 0 0 0 
0 0 0 0.02358097207149648 -0.344417296999129 0.054892303482552335 -0.7105775418032285 -0.023915204951695246 0.2507417299119697 1.2422579221407881 0.055438668245147114 -0.353965329290827 -0.4232709343025649 0.4519760845966088 -0.4122503771158856 0 0 0 0.0 0.0 0.0 0.0 0.0 0.0 0.0 0.0 0.0 0 0 0 
0 0 0 0.02894344903099323 -0.3995331883458951 0.06648095511325207 -0.6243247666365326 -0.02048734131228522 0.237100921848208 1.1134642779922688 0.04638482326250785 -0.32425371985811474 -0.4508628254198796 0.46830427546526593 -0.42698599592124264 0 0 0 0.0 0.0 0.0 0.0 0.0 0.0 0.0 0.0 0.0 0 0 0 
0 0 0 0.034293108681547405 -0.45463250651574233 0.07806082987135646 -0.5380934061162317 -0.01701065085257347 0.22346526162356398 0.9846602053120385 0.03735409314415245 -0.2947056090324231 -0.4783910885930277 0.484451447210504 -0.4416799749232012 0 0 0 0.0 0.0 0.0 0.0 0.0 0.0 0.0 0.0 0.0 0 0 0 
